{
    "asset" : {
        "generator" : "Khronos glTF Blender I/O v1.0.5",
        "version" : "2.0"
    },
    "scene" : 0,
    "scenes" : [
        {
            "name" : "Scene",
            "nodes" : [
                0,
                1
            ]
        }
    ],
    "nodes" : [
        {
            "name" : "cis-XeF2Cl2",
            "rotation" : [
                0.7071068286895752,
                0,
                0,
                0.7071067094802856
            ]
        },
        {
            "mesh" : 0,
            "name" : "cis-XeF2Cl2.001",
            "rotation" : [
                -0.9138846397399902,
                -0.3581305146217346,
                0.037307750433683395,
                -0.18752481043338776
            ]
        }
    ],
    "materials" : [
        {
            "doubleSided" : true,
            "name" : "k429eb0",
            "pbrMetallicRoughness" : {
                "baseColorFactor" : [
                    0.2619999945163727,
                    0.6209999918937683,
                    0.6909999847412109,
                    1
                ],
                "metallicFactor" : 0,
                "roughnessFactor" : 0.5744284987449646
            }
        },
        {
            "doubleSided" : true,
            "name" : "k1ff01f",
            "pbrMetallicRoughness" : {
                "baseColorFactor" : [
                    0.125,
                    0.9409999847412109,
                    0.125,
                    1
                ],
                "metallicFactor" : 0,
                "roughnessFactor" : 0.5744284987449646
            }
        },
        {
            "doubleSided" : true,
            "name" : "k90e050",
            "pbrMetallicRoughness" : {
                "baseColorFactor" : [
                    0.5659999847412109,
                    0.8790000081062317,
                    0.3160000145435333,
                    1
                ],
                "metallicFactor" : 0,
                "roughnessFactor" : 0.5744284987449646
            }
        },
        {
            "doubleSided" : true,
            "name" : "kffd700",
            "pbrMetallicRoughness" : {
                "baseColorFactor" : [
                    1,
                    0.843999981880188,
                    0,
                    1
                ],
                "metallicFactor" : 0,
                "roughnessFactor" : 0.5744284987449646
            }
        },
        {
            "doubleSided" : true,
            "name" : "k008000",
            "pbrMetallicRoughness" : {
                "baseColorFactor" : [
                    0,
                    0.5040000081062317,
                    0,
                    1
                ],
                "metallicFactor" : 0,
                "roughnessFactor" : 0.5744284987449646
            }
        },
        {
            "doubleSided" : true,
            "name" : "k0000ff",
            "pbrMetallicRoughness" : {
                "baseColorFactor" : [
                    0,
                    0,
                    1,
                    1
                ],
                "metallicFactor" : 0,
                "roughnessFactor" : 0.5744284987449646
            }
        },
        {
            "doubleSided" : true,
            "name" : "kffff00",
            "pbrMetallicRoughness" : {
                "baseColorFactor" : [
                    1,
                    1,
                    0,
                    1
                ],
                "metallicFactor" : 0,
                "roughnessFactor" : 0.5744284987449646
            }
        }
    ],
    "meshes" : [
        {
            "name" : "cis-XeF2Cl2.001",
            "primitives" : [
                {
                    "attributes" : {
                        "POSITION" : 0,
                        "NORMAL" : 1
                    },
                    "indices" : 2,
                    "material" : 0
                },
                {
                    "attributes" : {
                        "POSITION" : 3,
                        "NORMAL" : 4
                    },
                    "indices" : 5,
                    "material" : 1
                },
                {
                    "attributes" : {
                        "POSITION" : 6,
                        "NORMAL" : 7
                    },
                    "indices" : 5,
                    "material" : 2
                },
                {
                    "attributes" : {
                        "POSITION" : 8,
                        "NORMAL" : 9
                    },
                    "indices" : 10,
                    "material" : 3
                },
                {
                    "attributes" : {
                        "POSITION" : 11,
                        "NORMAL" : 12
                    },
                    "indices" : 13,
                    "material" : 4
                },
                {
                    "attributes" : {
                        "POSITION" : 14,
                        "NORMAL" : 15
                    },
                    "indices" : 13,
                    "material" : 5
                },
                {
                    "attributes" : {
                        "POSITION" : 16,
                        "NORMAL" : 17
                    },
                    "indices" : 18,
                    "material" : 6
                }
            ]
        }
    ],
    "accessors" : [
        {
            "bufferView" : 0,
            "componentType" : 5126,
            "count" : 3498,
            "max" : [
                0.8131660223007202,
                0.4964999854564667,
                1.0068659782409668
            ],
            "min" : [
                -0.8131660223007202,
                -0.4964999854564667,
                -0.6194660663604736
            ],
            "type" : "VEC3"
        },
        {
            "bufferView" : 1,
            "componentType" : 5126,
            "count" : 3498,
            "type" : "VEC3"
        },
        {
            "bufferView" : 2,
            "componentType" : 5123,
            "count" : 20064,
            "type" : "SCALAR"
        },
        {
            "bufferView" : 3,
            "componentType" : 5126,
            "count" : 2712,
            "max" : [
                1.8166999816894531,
                0.4025000035762787,
                -0.40733399987220764
            ],
            "min" : [
                -1.8166999816894531,
                -0.4025000035762787,
                -1.6230000257492065
            ],
            "type" : "VEC3"
        },
        {
            "bufferView" : 4,
            "componentType" : 5126,
            "count" : 2712,
            "type" : "VEC3"
        },
        {
            "bufferView" : 5,
            "componentType" : 5123,
            "count" : 15792,
            "type" : "SCALAR"
        },
        {
            "bufferView" : 6,
            "componentType" : 5126,
            "count" : 2712,
            "max" : [
                1.7521998882293701,
                0.33799999952316284,
                1.9458999633789062
            ],
            "min" : [
                -1.7521998882293701,
                -0.33799999952316284,
                0.7947338819503784
            ],
            "type" : "VEC3"
        },
        {
            "bufferView" : 7,
            "componentType" : 5126,
            "count" : 2712,
            "type" : "VEC3"
        },
        {
            "bufferView" : 8,
            "componentType" : 5126,
            "count" : 329,
            "max" : [
                0.09661658853292465,
                0.09661849588155746,
                2.493699550628662
            ],
            "min" : [
                -0.09661658853292465,
                -0.09661468118429184,
                1.193699836730957
            ],
            "type" : "VEC3"
        },
        {
            "bufferView" : 9,
            "componentType" : 5126,
            "count" : 329,
            "type" : "VEC3"
        },
        {
            "bufferView" : 10,
            "componentType" : 5123,
            "count" : 972,
            "type" : "SCALAR"
        },
        {
            "bufferView" : 11,
            "componentType" : 5126,
            "count" : 658,
            "max" : [
                1.060654640197754,
                -0.30293524265289307,
                1.3048629760742188
            ],
            "min" : [
                -1.1111631393432617,
                -0.5934981107711792,
                0.5143660306930542
            ],
            "type" : "VEC3"
        },
        {
            "bufferView" : 12,
            "componentType" : 5126,
            "count" : 658,
            "type" : "VEC3"
        },
        {
            "bufferView" : 13,
            "componentType" : 5123,
            "count" : 1944,
            "type" : "SCALAR"
        },
        {
            "bufferView" : 14,
            "componentType" : 5126,
            "count" : 658,
            "max" : [
                1.2374286651611328,
                -0.3036564588546753,
                -0.302683025598526
            ],
            "min" : [
                -1.237431526184082,
                -0.6004980802536011,
                -1.0437307357788086
            ],
            "type" : "VEC3"
        },
        {
            "bufferView" : 15,
            "componentType" : 5126,
            "count" : 658,
            "type" : "VEC3"
        },
        {
            "bufferView" : 16,
            "componentType" : 5126,
            "count" : 624,
            "max" : [
                0.40708673000335693,
                0.9918593168258667,
                0.6007867455482483
            ],
            "min" : [
                -0.40708673000335693,
                -0.9918593168258667,
                -0.21338677406311035
            ],
            "type" : "VEC3"
        },
        {
            "bufferView" : 17,
            "componentType" : 5126,
            "count" : 624,
            "type" : "VEC3"
        },
        {
            "bufferView" : 18,
            "componentType" : 5123,
            "count" : 3720,
            "type" : "SCALAR"
        }
    ],
    "bufferViews" : [
        {
            "buffer" : 0,
            "byteLength" : 41976,
            "byteOffset" : 0
        },
        {
            "buffer" : 0,
            "byteLength" : 41976,
            "byteOffset" : 41976
        },
        {
            "buffer" : 0,
            "byteLength" : 40128,
            "byteOffset" : 83952
        },
        {
            "buffer" : 0,
            "byteLength" : 32544,
            "byteOffset" : 124080
        },
        {
            "buffer" : 0,
            "byteLength" : 32544,
            "byteOffset" : 156624
        },
        {
            "buffer" : 0,
            "byteLength" : 31584,
            "byteOffset" : 189168
        },
        {
            "buffer" : 0,
            "byteLength" : 32544,
            "byteOffset" : 220752
        },
        {
            "buffer" : 0,
            "byteLength" : 32544,
            "byteOffset" : 253296
        },
        {
            "buffer" : 0,
            "byteLength" : 3948,
            "byteOffset" : 285840
        },
        {
            "buffer" : 0,
            "byteLength" : 3948,
            "byteOffset" : 289788
        },
        {
            "buffer" : 0,
            "byteLength" : 1944,
            "byteOffset" : 293736
        },
        {
            "buffer" : 0,
            "byteLength" : 7896,
            "byteOffset" : 295680
        },
        {
            "buffer" : 0,
            "byteLength" : 7896,
            "byteOffset" : 303576
        },
        {
            "buffer" : 0,
            "byteLength" : 3888,
            "byteOffset" : 311472
        },
        {
            "buffer" : 0,
            "byteLength" : 7896,
            "byteOffset" : 315360
        },
        {
            "buffer" : 0,
            "byteLength" : 7896,
            "byteOffset" : 323256
        },
        {
            "buffer" : 0,
            "byteLength" : 7488,
            "byteOffset" : 331152
        },
        {
            "buffer" : 0,
            "byteLength" : 7488,
            "byteOffset" : 338640
        },
        {
            "buffer" : 0,
            "byteLength" : 7440,
            "byteOffset" : 346128
        }
    ],
    "buffers" : [
        {
            "byteLength" : 353568,
            "uri" : "data:application/octet-stream;base64,"
        }
    ]
}
